<svg width="128" height="128" xmlns="http://www.w3.org/2000/svg">
<path fill-rule="evenodd" d="M 21 18 L 21 20 L 22 19 Z M 44 9 L 43 10 L 42 10 L 39 13 L 38 13 L 38 14 L 37 15 L 36 15 L 35 16 L 31 16 L 29 14 L 28 14 L 28 15 L 29 15 L 30 16 L 31 16 L 32 17 L 31 18 L 30 18 L 30 19 L 29 20 L 28 20 L 26 22 L 25 22 L 24 21 L 23 22 L 22 22 L 21 23 L 20 22 L 19 23 L 19 24 L 17 26 L 17 27 L 16 28 L 15 27 L 16 28 L 16 29 L 14 31 L 12 31 L 12 33 L 11 34 L 12 35 L 10 37 L 10 38 L 9 39 L 9 40 L 8 41 L 7 41 L 2 46 L 0 46 L 0 48 L 2 48 L 3 47 L 4 47 L 5 48 L 5 50 L 4 51 L 4 54 L 6 56 L 6 63 L 5 64 L 5 65 L 4 66 L 3 66 L 1 64 L 0 64 L 0 65 L 3 68 L 3 71 L 2 72 L 2 73 L 3 73 L 5 75 L 4 76 L 5 77 L 5 78 L 4 79 L 5 80 L 5 81 L 4 82 L 5 83 L 6 83 L 7 84 L 7 85 L 8 86 L 8 87 L 10 89 L 11 89 L 12 90 L 11 91 L 11 92 L 12 93 L 16 93 L 17 94 L 19 94 L 21 96 L 22 95 L 23 96 L 23 97 L 22 98 L 22 99 L 23 98 L 24 99 L 26 99 L 27 98 L 28 99 L 28 103 L 29 104 L 29 105 L 30 105 L 33 108 L 33 109 L 36 109 L 37 110 L 41 110 L 42 111 L 43 111 L 44 112 L 44 113 L 45 114 L 45 113 L 46 112 L 48 112 L 49 113 L 50 112 L 51 113 L 53 113 L 54 112 L 55 112 L 57 110 L 58 110 L 59 109 L 61 111 L 67 111 L 67 110 L 68 109 L 70 111 L 71 111 L 71 110 L 72 109 L 73 110 L 73 111 L 75 109 L 76 110 L 76 111 L 77 112 L 79 112 L 80 111 L 80 109 L 81 108 L 82 109 L 83 109 L 84 110 L 85 109 L 85 102 L 83 100 L 84 99 L 87 99 L 88 98 L 89 99 L 90 99 L 91 100 L 92 99 L 93 100 L 94 100 L 95 101 L 96 100 L 99 100 L 99 97 L 100 96 L 101 97 L 102 96 L 103 97 L 105 97 L 106 98 L 107 97 L 107 96 L 108 95 L 109 95 L 113 91 L 114 91 L 112 89 L 112 88 L 111 88 L 109 86 L 109 85 L 110 84 L 108 82 L 109 81 L 108 81 L 107 80 L 108 79 L 109 79 L 107 77 L 108 76 L 108 75 L 109 74 L 110 75 L 111 75 L 112 76 L 111 75 L 111 74 L 112 73 L 115 73 L 115 72 L 114 72 L 113 71 L 113 70 L 111 70 L 110 69 L 112 67 L 113 67 L 113 66 L 111 66 L 110 65 L 110 64 L 109 64 L 108 63 L 110 61 L 111 62 L 111 61 L 113 59 L 114 60 L 116 58 L 116 57 L 115 56 L 117 54 L 115 54 L 114 53 L 116 51 L 116 50 L 117 49 L 116 50 L 114 48 L 114 45 L 115 44 L 115 41 L 116 40 L 116 39 L 114 37 L 114 36 L 113 35 L 112 36 L 111 35 L 111 32 L 110 32 L 109 31 L 109 30 L 106 27 L 106 26 L 105 25 L 105 24 L 103 22 L 102 22 L 101 23 L 99 21 L 98 22 L 97 21 L 96 22 L 96 23 L 95 24 L 93 22 L 90 22 L 88 20 L 88 18 L 87 17 L 87 16 L 86 16 L 84 14 L 85 13 L 84 13 L 83 12 L 82 12 L 81 11 L 81 10 L 79 10 L 78 9 L 76 11 L 71 11 L 69 9 L 68 9 L 66 11 L 64 11 L 63 12 L 62 12 L 61 11 L 59 11 L 58 10 L 54 10 L 53 9 L 52 10 L 51 9 Z M 36 109 L 37 108 L 38 109 L 37 110 Z M 81 108 L 82 107 L 83 108 L 82 109 Z M 93 99 L 94 98 L 95 99 L 94 100 Z M 89 98 L 90 97 L 91 98 L 90 99 Z M 12 92 L 13 91 L 14 92 L 13 93 Z M 107 84 L 108 83 L 109 83 L 110 84 L 109 85 L 108 85 Z M 106 76 L 107 75 L 108 76 L 107 77 Z M 34 74 L 35 73 L 36 74 L 35 75 Z M 108 69 L 109 68 L 110 69 L 109 70 Z M 50 60 L 51 59 L 52 60 L 52 61 L 51 62 L 50 61 Z M 49 46 L 50 45 L 51 46 L 50 47 Z M 112 38 L 113 37 L 114 38 L 113 39 Z M 49 16 L 50 15 L 51 16 L 50 17 Z M 53 15 L 54 14 L 55 15 L 58 15 L 61 18 L 61 19 L 65 23 L 65 24 L 68 27 L 68 28 L 69 29 L 69 30 L 68 31 L 68 32 L 67 33 L 66 33 L 66 34 L 65 35 L 61 35 L 56 40 L 56 41 L 51 46 L 50 45 L 50 43 L 50 44 L 49 45 L 47 45 L 47 46 L 46 47 L 47 46 L 48 46 L 49 47 L 48 48 L 48 49 L 47 50 L 47 54 L 46 55 L 46 56 L 45 57 L 46 58 L 46 59 L 45 60 L 45 62 L 44 63 L 45 64 L 45 68 L 46 67 L 46 66 L 48 64 L 48 63 L 50 61 L 51 62 L 53 62 L 54 61 L 55 62 L 57 62 L 58 61 L 59 61 L 60 60 L 62 60 L 63 59 L 64 59 L 65 58 L 66 58 L 67 57 L 67 56 L 68 55 L 68 54 L 69 53 L 69 52 L 70 51 L 70 49 L 71 48 L 71 47 L 70 47 L 69 46 L 69 47 L 68 48 L 67 48 L 66 47 L 64 47 L 63 48 L 62 48 L 61 47 L 60 47 L 59 46 L 57 46 L 56 45 L 56 43 L 57 42 L 63 42 L 65 40 L 66 40 L 67 39 L 68 39 L 69 38 L 70 38 L 73 35 L 73 34 L 74 33 L 75 33 L 76 32 L 77 32 L 78 31 L 79 31 L 80 30 L 81 31 L 83 31 L 83 30 L 84 29 L 87 29 L 88 30 L 90 30 L 91 31 L 91 32 L 93 34 L 92 35 L 93 36 L 91 38 L 90 38 L 88 40 L 87 40 L 86 41 L 85 41 L 83 43 L 82 43 L 81 44 L 81 45 L 80 46 L 80 48 L 79 49 L 79 52 L 80 52 L 80 51 L 82 49 L 83 49 L 84 48 L 90 48 L 93 51 L 95 51 L 97 53 L 97 55 L 96 56 L 96 57 L 93 60 L 92 60 L 91 61 L 91 63 L 90 64 L 90 66 L 89 67 L 89 68 L 88 69 L 88 70 L 87 71 L 87 72 L 85 74 L 93 74 L 95 72 L 96 72 L 97 73 L 98 73 L 99 74 L 100 74 L 101 75 L 103 75 L 104 76 L 105 76 L 107 78 L 106 79 L 105 79 L 104 80 L 102 80 L 103 80 L 104 81 L 104 82 L 103 83 L 101 83 L 100 82 L 98 82 L 97 81 L 94 81 L 93 80 L 92 81 L 91 80 L 87 80 L 86 81 L 85 80 L 84 81 L 83 80 L 82 81 L 78 81 L 77 82 L 76 81 L 75 82 L 74 82 L 73 83 L 69 83 L 68 84 L 67 84 L 66 85 L 64 85 L 63 86 L 62 86 L 60 88 L 57 88 L 56 89 L 55 89 L 54 88 L 50 88 L 49 87 L 47 87 L 46 86 L 45 86 L 43 84 L 43 83 L 44 82 L 45 82 L 46 81 L 49 81 L 50 80 L 52 80 L 53 79 L 55 79 L 56 78 L 57 78 L 58 77 L 58 72 L 57 71 L 57 69 L 56 70 L 53 70 L 52 71 L 51 70 L 51 69 L 49 67 L 48 68 L 48 69 L 46 71 L 46 74 L 44 76 L 44 77 L 43 78 L 43 87 L 42 88 L 41 87 L 39 87 L 39 89 L 38 90 L 36 88 L 36 87 L 36 88 L 35 89 L 34 88 L 34 86 L 34 87 L 33 88 L 32 87 L 32 81 L 33 80 L 33 77 L 36 74 L 36 70 L 37 69 L 37 66 L 38 65 L 38 63 L 39 62 L 39 60 L 41 58 L 42 58 L 41 58 L 40 57 L 41 56 L 41 54 L 38 57 L 37 57 L 36 58 L 35 58 L 34 59 L 33 59 L 29 63 L 28 63 L 24 67 L 23 67 L 20 70 L 20 71 L 19 72 L 18 71 L 18 68 L 19 67 L 19 66 L 20 65 L 20 64 L 21 63 L 21 62 L 24 59 L 24 58 L 29 53 L 29 52 L 34 47 L 34 46 L 37 43 L 37 42 L 40 39 L 40 38 L 43 35 L 43 34 L 45 32 L 45 31 L 47 29 L 47 28 L 49 26 L 49 25 L 51 23 L 51 21 L 50 20 L 50 17 L 51 16 L 52 17 L 53 16 Z M 63 66 L 62 67 L 61 67 L 61 68 L 62 68 L 62 67 Z M 28 58 L 25 61 L 26 61 L 26 60 Z M 80 57 L 79 58 L 78 58 L 76 60 L 76 61 L 75 62 L 75 64 L 74 65 L 74 66 L 73 67 L 73 69 L 72 70 L 72 71 L 71 72 L 71 73 L 70 74 L 70 75 L 76 69 L 76 68 L 78 66 L 78 65 L 79 64 L 79 63 L 80 62 L 80 60 L 81 59 L 81 57 Z M 52 34 L 52 36 L 53 37 L 53 38 L 54 38 L 53 37 L 54 36 L 53 37 L 52 36 Z " fill="black" />
</svg>